/* XPM */
static char * TpDisplayTwo_xpm[] = {
"32 32 4 1",
" 	c white",
".	c black",
"X	c khaki3",
"o	c turquoise3",
"                                ",
"                                ",
"                                ",
"   ..........................   ",
"   .XXXXXXXXXXXX.ooooooooooo.   ",
"   .XXXXXXXXXXXX.ooooooooooo.   ",
"   .XXXXXXXXXXXX.ooooooooooo.   ",
"   .XXXXXXXXXXXX.ooooooooooo.   ",
"   .XXXXXXXXXXXX.ooooooooooo.   ",
"   .XXXXXXXXXXXX.ooooooooooo.   ",
"   .XXXXXXXXXXXX.ooooooooooo.   ",
"   .XXXXXXXXXXXX.ooooooooooo.   ",
"   .XXXXXXXXXXXX.ooooooooooo.   ",
"   .XXXXXXXXXXXX.ooooooooooo.   ",
"   .XXXXXXXXXXXX.ooooooooooo.   ",
"   .XXXXXXXXXXXX.ooooooooooo.   ",
"   .XXXXXXXXXXXX.ooooooooooo.   ",
"   .XXXXXXXXXXXX.ooooooooooo.   ",
"   .XXXXXXXXXXXX.ooooooooooo.   ",
"   .XXXXXXXXXXXX.ooooooooooo.   ",
"   .XXXXXXXXXXXX.ooooooooooo.   ",
"   .XXXXXXXXXXXX.ooooooooooo.   ",
"   .XXXXXXXXXXXX.ooooooooooo.   ",
"   .XXXXXXXXXXXX.ooooooooooo.   ",
"   .XXXXXXXXXXXX.ooooooooooo.   ",
"   .XXXXXXXXXXXX.ooooooooooo.   ",
"   .XXXXXXXXXXXX.ooooooooooo.   ",
"   .XXXXXXXXXXXX.ooooooooooo.   ",
"   ..........................   ",
"                                ",
"                                ",
"                                "};
