/* XPM */
static char * TpDisplayThree_xpm[] = {
"32 32 4 1",
" 	c white",
".	c black",
"X	c khaki3",
"o	c turquoise3",
"                                ",
"                                ",
"                                ",
"   ..........................   ",
"   .XXXXXXX.oooooooo.XXXXXXX.   ",
"   .XXXXXXX.oooooooo.XXXXXXX.   ",
"   .XXXXXXX.oooooooo.XXXXXXX.   ",
"   .XXXXXXX.oooooooo.XXXXXXX.   ",
"   .XXXXXXX.oooooooo.XXXXXXX.   ",
"   .XXXXXXX.oooooooo.XXXXXXX.   ",
"   .XXXXXXX.oooooooo.XXXXXXX.   ",
"   .XXXXXXX.oooooooo.XXXXXXX.   ",
"   .XXXXXXX.oooooooo.XXXXXXX.   ",
"   .XXXXXXX.oooooooo.XXXXXXX.   ",
"   .XXXXXXX.oooooooo.XXXXXXX.   ",
"   .XXXXXXX.oooooooo.XXXXXXX.   ",
"   .XXXXXXX.oooooooo.XXXXXXX.   ",
"   .XXXXXXX.oooooooo.XXXXXXX.   ",
"   .XXXXXXX.oooooooo.XXXXXXX.   ",
"   .XXXXXXX.oooooooo.XXXXXXX.   ",
"   .XXXXXXX.oooooooo.XXXXXXX.   ",
"   .XXXXXXX.oooooooo.XXXXXXX.   ",
"   .XXXXXXX.oooooooo.XXXXXXX.   ",
"   .XXXXXXX.oooooooo.XXXXXXX.   ",
"   .XXXXXXX.oooooooo.XXXXXXX.   ",
"   .XXXXXXX.oooooooo.XXXXXXX.   ",
"   .XXXXXXX.oooooooo.XXXXXXX.   ",
"   .XXXXXXX.oooooooo.XXXXXXX.   ",
"   ..........................   ",
"                                ",
"                                ",
"                                "};
