#define TpIncZoom_width 16
#define TpIncZoom_height 16
static char TpIncZoom_bits[] = {
   0x80, 0x01, 0x80, 0x01, 0x80, 0x01, 0x80, 0x01, 0x80, 0x01, 0x80, 0x01,
   0x80, 0x01, 0xff, 0xff, 0xff, 0xff, 0x80, 0x01, 0x80, 0x01, 0x80, 0x01,
   0x80, 0x01, 0x80, 0x01, 0x80, 0x01, 0x80, 0x01};
