/* XPM */
static char * TpKeepPointI_xpm[] = {
"32 32 2 1",
" 	c grey",
".	c red",
"                                ",
"                                ",
"                                ",
"                                ",
"                                ",
"                                ",
"     .  .  . ..  . ..  . .      ",
"                          .     ",
"     ..    . .   . .   .  .     ",
"     .     .     .     . .      ",
"        .                       ",
"     .  .  . ..  . ..  .        ",
"                                ",
"                                ",
"                                ",
"                                ",
"                                ",
"                                ",
"                                ",
"    . .   .   . . .  . . . .    ",
"       . .  .      .     .      ",
"    .  . .  .  .  . ..          ",
"    . .           .  .   .      ",
"         .  .  .                ",
"    .     ..  . . .  .   .      ",
"                                ",
"                                ",
"                                ",
"                                ",
"                                ",
"                                ",
"                                "};
