/* XPM */
static char * TpKeepPoint_xpm[] = {
"32 32 2 1",
" 	c khaki",
".	c red",
"                                ",
"                                ",
"                                ",
"                                ",
"                                ",
"                                ",
"     .  .  ....  ....  ...      ",
"     . .   .     .     .  .     ",
"     ..    ...   ...   .  .     ",
"     . .   .     .     ...      ",
"     .  .  .     .     .        ",
"     .  .  ....  ....  .        ",
"                                ",
"                                ",
"                                ",
"                                ",
"                                ",
"                                ",
"                                ",
"    ...   ..  ... .  . .....    ",
"    .  . .  .  .  .. .   .      ",
"    .  . .  .  .  . ..   .      ",
"    ...  .  .  .  .  .   .      ",
"    .    .  .  .  .  .   .      ",
"    .     ..  ... .  .   .      ",
"                                ",
"                                ",
"                                ",
"                                ",
"                                ",
"                                ",
"                                "};
