#define RectangleWithCrossesWithDot_width 16
#define RectangleWithCrossesWithDot_height 16
static char RectangleWithCrossesWithDot_bits[] = {
   0xff, 0xff, 0x87, 0xe1, 0x8f, 0xf1, 0x9d, 0xb9, 0xb9, 0x9d, 0x31, 0x8c,
   0x01, 0x80, 0x9f, 0xf9, 0x9f, 0xf9, 0x01, 0x80, 0x31, 0x8c, 0xb9, 0x9d,
   0x9d, 0xb9, 0x8f, 0xf1, 0x87, 0xe1, 0xff, 0xff};
