#define TpPointSymbolCross_width 16
#define TpPointSymbolCross_height 16
static char TpPointSymbolCross_bits[] = {
   0x80, 0x01, 0x80, 0x01, 0x80, 0x01, 0x80, 0x01, 0x80, 0x01, 0x80, 0x01,
   0x00, 0x00, 0xbf, 0xfd, 0xbf, 0xfd, 0x00, 0x00, 0x80, 0x01, 0x80, 0x01,
   0x80, 0x01, 0x80, 0x01, 0x80, 0x01, 0x80, 0x01};
