#define TpPointSymbolRect_width 16
#define TpPointSymbolRect_height 16
static char TpPointSymbolRect_bits[] = {
   0xff, 0xff, 0xff, 0xff, 0x03, 0xc0, 0x03, 0xc0, 0x03, 0xc0, 0x03, 0xc0,
   0x03, 0xc0, 0x03, 0xc0, 0x03, 0xc0, 0x03, 0xc0, 0x03, 0xc0, 0x03, 0xc0,
   0x03, 0xc0, 0x03, 0xc0, 0xff, 0xff, 0xff, 0xff};
