#define TpPointSymbolCrossWithHole45_width 16
#define TpPointSymbolCrossWithHole45_height 16
static char TpPointSymbolCrossWithHole45_bits[] = {
   0x03, 0xc0, 0x07, 0xe0, 0x0e, 0x70, 0x1c, 0x38, 0x38, 0x1c, 0x70, 0x0e,
   0x60, 0x06, 0x00, 0x00, 0x00, 0x00, 0x60, 0x06, 0x70, 0x0e, 0x38, 0x1c,
   0x1c, 0x38, 0x0e, 0x70, 0x07, 0xe0, 0x03, 0xc0};
