/* XPM */
static char * TpShiftLeft_xpm[] = {
"32 32 2 1",
" 	c cadet blue",
".	c black",
"                                ",
"                                ",
"                                ",
"                                ",
"                                ",
"                                ",
"                                ",
"                                ",
"                                ",
"                                ",
"                                ",
"              ..    ..          ",
"             ..    ..           ",
"            ..    ..            ",
"           ..    ..             ",
"          ..    ..              ",
"           ..    ..             ",
"            ..    ..            ",
"             ..    ..           ",
"              ..    ..          ",
"                                ",
"                                ",
"                                ",
"                                ",
"                                ",
"                                ",
"                                ",
"                                ",
"                                ",
"                                ",
"                                ",
"                                "};
